<?xml version="1.0" encoding="UTF-8" standalone="no"?>
<!-- Created with Inkscape (http://www.inkscape.org/) -->

<svg
   xmlns:dc="http://purl.org/dc/elements/1.1/"
   xmlns:cc="http://creativecommons.org/ns#"
   xmlns:rdf="http://www.w3.org/1999/02/22-rdf-syntax-ns#"
   xmlns:svg="http://www.w3.org/2000/svg"
   xmlns="http://www.w3.org/2000/svg"
   xmlns:sodipodi="http://sodipodi.sourceforge.net/DTD/sodipodi-0.dtd"
   xmlns:inkscape="http://www.inkscape.org/namespaces/inkscape"
   width="11.784328mm"
   height="11.452035mm"
   viewBox="0 0 41.755494 40.578076"
   id="svg2"
   version="1.1"
   inkscape:version="0.91 r13725"
   sodipodi:docname="beta.svg">
  <defs
     id="defs4" />
  <sodipodi:namedview
     id="base"
     pagecolor="#ffffff"
     bordercolor="#666666"
     borderopacity="1.0"
     inkscape:pageopacity="0.0"
     inkscape:pageshadow="2"
     inkscape:zoom="3.959798"
     inkscape:cx="-13.232513"
     inkscape:cy="19.560355"
     inkscape:document-units="px"
     inkscape:current-layer="layer1"
     showgrid="false"
     fit-margin-top="0"
     fit-margin-left="0"
     fit-margin-right="0"
     fit-margin-bottom="0"
     inkscape:window-width="1366"
     inkscape:window-height="690"
     inkscape:window-x="0"
     inkscape:window-y="0"
     inkscape:window-maximized="1" />
  <metadata
     id="metadata7">
    <rdf:RDF>
      <cc:Work
         rdf:about="">
        <dc:format>image/svg+xml</dc:format>
        <dc:type
           rdf:resource="http://purl.org/dc/dcmitype/StillImage" />
        <dc:title></dc:title>
      </cc:Work>
    </rdf:RDF>
  </metadata>
  <g
     inkscape:label="Ebene 1"
     inkscape:groupmode="layer"
     id="layer1"
     transform="translate(-36.155682,-451.19229)">
    <path
       sodipodi:type="star"
       style="color:#000000;clip-rule:nonzero;display:inline;overflow:visible;visibility:visible;opacity:1;isolation:auto;mix-blend-mode:normal;color-interpolation:sRGB;color-interpolation-filters:linearRGB;solid-color:#000000;solid-opacity:1;fill:#e9afc6;fill-opacity:1;fill-rule:evenodd;stroke:#000000;stroke-width:0.5;stroke-linecap:round;stroke-linejoin:miter;stroke-miterlimit:4;stroke-dasharray:none;stroke-dashoffset:0;stroke-opacity:1;color-rendering:auto;image-rendering:auto;shape-rendering:auto;text-rendering:auto;enable-background:accumulate"
       id="path3336"
       sodipodi:sides="5"
       sodipodi:cx="62.857143"
       sodipodi:cy="380.93362"
       sodipodi:r1="120.54299"
       sodipodi:r2="60.203388"
       sodipodi:arg1="0.5485494"
       sodipodi:arg2="1.1768679"
       inkscape:flatsided="false"
       inkscape:rounded="0"
       inkscape:randomized="0"
       d="m 165.71429,443.79077 -79.749948,-7.26483 -51.103289,61.65457 -17.734824,-78.09166 -74.428766,-29.54981 68.789222,-40.99847 5.103782,-79.91736 60.248902,52.75322 77.583081,-19.84184 -31.55336,73.60175 z"
       inkscape:transform-center-x="-2.4951162"
       inkscape:transform-center-y="9.1119852"
       transform="matrix(0.17347741,-0.05393356,0.05393356,0.17347741,25.128619,407.12494)" />
    <g
       transform="matrix(0.17178862,-0.05909239,0.05909239,0.17178862,15.549917,409.94781)"
       style="font-style:normal;font-variant:normal;font-weight:normal;font-stretch:normal;font-size:47.74332809px;line-height:125%;font-family:'Qarmic sans';-inkscape-font-specification:'Qarmic sans';text-align:center;letter-spacing:0px;word-spacing:0px;text-anchor:middle;fill:#000000;fill-opacity:1;stroke:none;stroke-width:1px;stroke-linecap:butt;stroke-linejoin:miter;stroke-opacity:1"
       id="flowRoot3338">
      <path
         inkscape:connector-curvature="0"
         d="m 46.783052,372.18097 0,1.90973 2.72137,0.28646 0.811637,0.66841 0,26.30658 -0.811637,0.6684 -2.72137,0.23872 0,1.95747 12.604239,0 c 8.116366,0 12.461009,-3.34203 12.461009,-9.35769 0,-4.67884 -3.198803,-7.59119 -8.880259,-7.63893 4.583359,-1.24133 6.922782,-3.67624 6.922782,-7.30473 0,-5.25177 -3.628493,-7.73442 -10.933222,-7.73442 l -12.174549,0 z m 7.829906,14.51397 0,-12.27003 c 1.193583,-0.0478 2.100707,-0.14323 2.72137,-0.14323 5.251766,0 7.829906,1.95747 7.829906,5.82468 0,4.63111 -2.769113,6.63633 -8.737029,6.63633 -0.57292,0 -1.193583,0 -1.814247,-0.0478 z m 0,15.13464 0,-12.74747 c 1.86199,-0.19097 3.43752,-0.28646 4.678846,-0.28646 5.29951,0 7.87765,2.05296 7.87765,6.39761 0,4.82207 -2.960087,6.77955 -9.357693,6.77955 -1.00261,0 -2.052963,-0.0478 -3.198803,-0.14323 z"
         style="font-style:normal;font-variant:normal;font-weight:normal;font-stretch:normal;font-family:'Bitstream Charter';-inkscape-font-specification:'Bitstream Charter'"
         id="path3378" />
      <path
         inkscape:connector-curvature="0"
         d="m 75.596897,404.21674 24.587813,0 0,-7.78216 -2.482652,0 -0.811637,4.82208 -0.668406,0.76389 -12.795212,0 0,-13.36813 7.829906,0 0.668406,0.71615 0.477434,3.43752 2.243936,0 0,-10.50353 -2.243936,0 -0.477434,3.48526 -0.668406,0.66841 -7.829906,0 0,-12.07907 11.028709,0 0.668406,0.71615 0.668407,4.05819 2.673626,0 0,-6.97053 -22.869054,0 0,1.90973 2.72137,0.28646 0.811636,0.66841 0,26.30658 -0.811636,0.6684 -2.72137,0.23872 0,1.95747 z"
         style="font-style:normal;font-variant:normal;font-weight:normal;font-stretch:normal;font-family:'Bitstream Charter';-inkscape-font-specification:'Bitstream Charter'"
         id="path3380" />
      <path
         inkscape:connector-curvature="0"
         d="m 102.29362,372.18097 0,7.35247 2.62589,0 0.6684,-4.44013 0.66841,-0.71615 7.35247,0 0,26.97499 -0.85938,0.6684 -3.1988,0.23872 0,1.95747 12.46101,0 0,-1.95747 -3.1988,-0.23872 -0.85938,-0.6684 0,-26.97499 7.35247,0 0.6684,0.71615 0.66841,4.44013 2.62588,0 0,-7.35247 -26.97498,0 z"
         style="font-style:normal;font-variant:normal;font-weight:normal;font-stretch:normal;font-family:'Bitstream Charter';-inkscape-font-specification:'Bitstream Charter'"
         id="path3382" />
      <path
         inkscape:connector-curvature="0"
         d="m 143.62294,371.79902 -11.17194,29.88733 -2.76912,0.57292 0,1.95747 9.3577,0 0,-1.95747 -3.10332,-0.23872 -0.47743,-0.6684 3.38977,-9.11898 11.26743,0 3.43752,9.11898 -0.33421,0.6684 -2.96008,0.23872 0,1.95747 10.83773,0 0,-1.95747 -2.8646,-0.57292 -11.45839,-29.88733 -3.15106,0 z m 0.76389,5.01305 4.91756,13.22491 -9.64415,0 4.72659,-13.22491 z"
         style="font-style:normal;font-variant:normal;font-weight:normal;font-stretch:normal;font-family:'Bitstream Charter';-inkscape-font-specification:'Bitstream Charter'"
         id="path3384" />
    </g>
  </g>
</svg>
